<svg width="265" height="113" viewBox="0 0 265 113" fill="none" xmlns="http://www.w3.org/2000/svg">
<path d="M31.6406 112.734H0L23.9844 0H48.9844L79.6875 61.875H80.3125L93.3594 0H125L101.016 112.734H76.0156L45.3125 50.8594H44.6875L31.6406 112.734ZM138.088 112.734H76.3688L100.353 0H152.619C160.067 0 166.265 1.06771 171.213 3.20312C176.213 5.33854 179.936 8.22917 182.384 11.875C184.884 15.4688 186.134 19.5052 186.134 23.9844C186.134 29.0365 184.989 33.5938 182.697 37.6562C180.457 41.7188 177.332 45.1042 173.322 47.8125C169.364 50.4688 164.78 52.2917 159.572 53.2812L159.494 53.9062C165.431 55.2604 170.405 57.9427 174.416 61.9531C178.426 65.9635 180.431 70.9115 180.431 76.7969C180.431 83.776 178.608 89.974 174.963 95.3906C171.317 100.807 166.291 105.052 159.884 108.125C153.53 111.198 146.265 112.734 138.088 112.734ZM128.244 20.5469L123.4 43.4375H137.463C140.64 43.4375 143.4 42.8646 145.744 41.7188C148.088 40.5208 149.91 38.9062 151.213 36.875C152.515 34.8438 153.166 32.5521 153.166 30C153.166 27.2396 152.15 24.974 150.119 23.2031C148.088 21.4323 145.067 20.5469 141.056 20.5469H128.244ZM113.556 90H129.65C133.348 90 136.525 89.375 139.181 88.125C141.838 86.875 143.869 85.1042 145.275 82.8125C146.733 80.4688 147.463 77.7604 147.463 74.6875C147.463 72.5 146.942 70.625 145.9 69.0625C144.858 67.4479 143.296 66.1979 141.213 65.3125C139.181 64.4271 136.629 63.9844 133.556 63.9844H119.025L113.556 90ZM128.8 112.734L176.378 55.9375L152.628 0H188.097L201.3 32.2656H201.925L225.909 0H264.191L216.222 56.5625L240.128 112.734H204.738L191.222 79.9219H190.597L166.144 112.734H128.8Z" fill="black"/>
</svg>
