<svg width="645" height="119" viewBox="0 0 645 119" fill="none" xmlns="http://www.w3.org/2000/svg">
<path d="M120 -0.000114441L100.682 116.364H74.3182L42.5 55.2272H41.8182L31.5909 116.364H-2.21878e-05L19.3182 -0.000114441H46.1363L77.5 60.909H78.4091L88.4091 -0.000114441H120ZM141.898 117.954C132.428 117.954 124.625 116.079 118.489 112.329C112.39 108.542 108.11 103.276 105.648 96.534C103.186 89.7537 102.693 81.8938 104.17 72.9544C105.648 64.015 108.735 56.1741 113.432 49.4317C118.129 42.6514 124.17 37.3862 131.557 33.6362C138.943 29.8484 147.39 27.9544 156.898 27.9544C166.33 27.9544 174.095 29.8484 180.193 33.6362C186.33 37.3862 190.629 42.6514 193.091 49.4317C195.591 56.1741 196.102 64.015 194.625 72.9544C193.148 81.8938 190.042 89.7537 185.307 96.534C180.572 103.276 174.511 108.542 167.125 112.329C159.776 116.079 151.367 117.954 141.898 117.954ZM145.761 94.7726C148.489 94.7726 150.97 93.8825 153.205 92.1022C155.477 90.3219 157.409 87.784 159 84.4885C160.629 81.1931 161.822 77.2726 162.58 72.7272C163.337 68.1438 163.451 64.2234 162.92 60.9658C162.39 57.6703 161.292 55.1325 159.625 53.3522C157.958 51.5719 155.761 50.6817 153.034 50.6817C150.307 50.6817 147.807 51.5719 145.534 53.3522C143.261 55.1325 141.33 57.6703 139.739 60.9658C138.148 64.2234 136.973 68.1438 136.216 72.7272C135.458 77.2726 135.326 81.1931 135.818 84.4885C136.348 87.784 137.447 90.3219 139.114 92.1022C140.818 93.8825 143.034 94.7726 145.761 94.7726ZM183.625 116.364L202.943 -0.000114441H234.307L227.034 44.3181H227.489C229.08 41.3635 231.182 38.6552 233.795 36.1931C236.409 33.6931 239.477 31.7044 243 30.2272C246.523 28.712 250.443 27.9544 254.761 27.9544C260.519 27.9544 265.727 29.4885 270.386 32.5567C275.083 35.6249 278.511 40.4544 280.67 47.0453C282.867 53.6363 283.095 62.1969 281.352 72.7272C279.686 82.8029 276.731 91.1552 272.489 97.784C268.246 104.413 263.246 109.356 257.489 112.614C251.731 115.871 245.746 117.5 239.534 117.5C235.443 117.5 231.901 116.837 228.909 115.511C225.955 114.148 223.549 112.31 221.693 110C219.875 107.651 218.625 105 217.943 102.045H217.034L214.761 116.364H183.625ZM221.58 72.7272C220.898 76.9696 220.86 80.6438 221.466 83.7499C222.072 86.8181 223.265 89.2044 225.045 90.909C226.826 92.5756 229.155 93.409 232.034 93.409C234.913 93.409 237.508 92.5946 239.818 90.9658C242.129 89.2991 244.08 86.9317 245.67 83.8635C247.261 80.7575 248.398 77.0453 249.08 72.7272C249.761 68.409 249.818 64.7158 249.25 61.6476C248.682 58.5416 247.526 56.1741 245.784 54.5453C244.042 52.8787 241.731 52.0453 238.852 52.0453C235.973 52.0453 233.36 52.8787 231.011 54.5453C228.663 56.1741 226.674 58.5416 225.045 61.6476C223.417 64.7158 222.261 68.409 221.58 72.7272ZM334.159 78.1817L342.341 29.0908H373.705L359.159 116.364H329.386L332.114 99.7726H331.205C328.515 105.341 324.5 109.697 319.159 112.841C313.856 115.947 307.947 117.5 301.432 117.5C295.333 117.5 290.239 116.098 286.148 113.295C282.057 110.492 279.159 106.629 277.455 101.704C275.75 96.7802 275.409 91.1363 276.432 84.7726L285.75 29.0908H317.114L308.932 78.1817C308.288 82.4999 308.837 85.89 310.58 88.3522C312.36 90.8143 315.22 92.0453 319.159 92.0453C321.773 92.0453 324.121 91.4961 326.205 90.3976C328.326 89.2613 330.068 87.6703 331.432 85.6249C332.833 83.5416 333.742 81.0605 334.159 78.1817ZM425.702 29.0908L421.838 51.8181H364.338L368.202 29.0908H425.702ZM382.747 8.18171H414.111L400.815 88.2953C400.626 89.5075 400.664 90.5302 400.929 91.3635C401.194 92.159 401.724 92.765 402.52 93.1817C403.353 93.5605 404.452 93.7499 405.815 93.7499C406.724 93.7499 407.842 93.6363 409.168 93.409C410.493 93.1438 411.497 92.9544 412.179 92.8408L413.088 114.886C411.497 115.341 409.357 115.852 406.668 116.42C404.016 117.026 400.929 117.424 397.406 117.614C390.058 117.954 384.073 117.178 379.452 115.284C374.868 113.39 371.687 110.435 369.906 106.42C368.164 102.367 367.861 97.3105 368.997 91.2499L382.747 8.18171ZM448.608 117.954C439.29 117.954 431.562 116.174 425.426 112.614C419.29 109.015 414.972 103.864 412.472 97.159C409.972 90.4166 409.517 82.3484 411.108 72.9544C412.623 63.9393 415.748 56.0605 420.483 49.3181C425.256 42.5756 431.259 37.3294 438.494 33.5794C445.767 29.8294 453.911 27.9544 462.926 27.9544C469.517 27.9544 475.294 28.9772 480.256 31.0226C485.256 33.0681 489.328 36.0416 492.472 39.9431C495.616 43.8446 497.737 48.5605 498.835 54.0908C499.972 59.5832 499.972 65.7953 498.835 72.7272L497.699 79.9999H419.744L422.472 62.7272H471.562C471.941 60.2272 471.695 58.0302 470.824 56.1363C469.991 54.2044 468.646 52.7082 466.79 51.6476C464.972 50.5491 462.775 49.9999 460.199 49.9999C457.623 49.9999 455.199 50.5491 452.926 51.6476C450.691 52.7461 448.778 54.2802 447.187 56.2499C445.634 58.2196 444.593 60.5302 444.062 63.1817L440.653 81.3635C440.199 84.1666 440.369 86.6666 441.165 88.8635C441.96 91.0605 443.343 92.784 445.312 94.034C447.282 95.284 449.82 95.909 452.926 95.909C455.047 95.909 457.055 95.6249 458.949 95.0567C460.881 94.4506 462.585 93.5794 464.062 92.4431C465.578 91.2688 466.79 89.8484 467.699 88.1817H496.335C494.29 94.2423 491.051 99.5075 486.619 103.977C482.225 108.409 476.809 111.856 470.369 114.318C463.968 116.742 456.714 117.954 448.608 117.954ZM488.361 116.364L502.906 29.0908H533.361L530.634 45.6817H531.543C534.156 39.5453 537.433 35.0567 541.372 32.2158C545.312 29.3749 549.611 27.9544 554.27 27.9544C555.634 27.9544 556.94 28.0681 558.19 28.2953C559.478 28.4847 560.747 28.7499 561.997 29.0908L557.452 55.909C555.974 55.3408 554.137 54.9431 551.94 54.7158C549.743 54.4506 547.793 54.3181 546.088 54.3181C543.058 54.3181 540.217 55.0188 537.565 56.4203C534.952 57.784 532.717 59.7158 530.861 62.2158C529.043 64.6779 527.83 67.5756 527.224 70.909L519.724 116.364H488.361ZM604.69 78.1817L612.872 29.0908H644.236L629.69 116.364H599.918L602.645 99.7726H601.736C599.046 105.341 595.031 109.697 589.69 112.841C584.387 115.947 578.478 117.5 571.963 117.5C565.865 117.5 560.77 116.098 556.679 113.295C552.588 110.492 549.69 106.629 547.986 101.704C546.281 96.7802 545.94 91.1363 546.963 84.7726L556.281 29.0908H587.645L579.463 78.1817C578.819 82.4999 579.368 85.89 581.111 88.3522C582.891 90.8143 585.751 92.0453 589.69 92.0453C592.304 92.0453 594.652 91.4961 596.736 90.3976C598.857 89.2613 600.599 87.6703 601.963 85.6249C603.365 83.5416 604.274 81.0605 604.69 78.1817Z" fill="black"/>
</svg>
